<svg width="170" height="53" viewBox="0 0 170 53" fill="none" xmlns="http://www.w3.org/2000/svg"><path d="M119.352 50.771v-7.514h.71v3.225h4.446v-3.225h.71v7.514h-.71v-3.684h-4.446v3.684h-.71Zm11.362-3.078c0-.265-.038-.512-.115-.741a1.576 1.576 0 0 0-.323-.606 1.418 1.418 0 0 0-.532-.407 1.684 1.684 0 0 0-.741-.156c-.279 0-.526.052-.741.156-.209.105-.39.244-.543.418a2.184 2.184 0 0 0-.355.605c-.09.23-.149.473-.177.73h3.527Zm-3.527.521c0 .293.038.57.115.835.076.258.187.484.334.679.153.188.344.34.574.459.229.111.494.167.793.167.41 0 .762-.108 1.054-.324.292-.215.487-.522.584-.918h.699a3.478 3.478 0 0 1-.302.72 2.32 2.32 0 0 1-.47.574 2.08 2.08 0 0 1-.668.376c-.257.09-.556.135-.897.135-.432 0-.804-.073-1.117-.219a2.132 2.132 0 0 1-.772-.595 2.581 2.581 0 0 1-.449-.897 4.142 4.142 0 0 1-.146-1.117c0-.396.056-.769.167-1.117.118-.348.282-.65.49-.907a2.303 2.303 0 0 1 1.827-.845c.744 0 1.329.257 1.753.771.424.508.633 1.25.626 2.223h-4.195Zm8.951-.281a3.084 3.084 0 0 1-.804.219c-.271.035-.543.062-.814.083-.48.035-.856.143-1.127.324-.264.18-.397.456-.397.824 0 .167.032.313.094.438.07.119.157.22.261.303.111.077.237.136.376.178.146.034.292.052.438.052.251 0 .494-.032.731-.094.236-.063.445-.157.626-.282.188-.132.337-.296.449-.49a1.45 1.45 0 0 0 .167-.71v-.845Zm-1.054-.313c.118-.014.257-.035.417-.063.167-.028.303-.066.407-.115a.318.318 0 0 0 .188-.24c.028-.118.042-.226.042-.323 0-.32-.105-.581-.313-.783-.202-.209-.547-.313-1.034-.313-.215 0-.414.02-.595.062-.18.035-.34.101-.48.199-.132.09-.243.215-.334.375a1.628 1.628 0 0 0-.167.585h-.636a1.9 1.9 0 0 1 .219-.814c.125-.23.285-.414.48-.553.202-.147.431-.25.689-.313a3.267 3.267 0 0 1 1.597-.01c.243.055.452.149.626.28.181.126.32.297.417.512.105.216.157.48.157.793v2.943c0 .244.042.4.125.47.091.063.268.045.532-.052v.49l-.219.063a.917.917 0 0 1-.271.042c-.098 0-.192-.01-.282-.032a.508.508 0 0 1-.25-.093.803.803 0 0 1-.157-.188.952.952 0 0 1-.073-.24 1.84 1.84 0 0 1-.021-.282 2.714 2.714 0 0 1-.908.668 2.67 2.67 0 0 1-1.106.23c-.237 0-.466-.032-.689-.095a1.657 1.657 0 0 1-.574-.292 1.46 1.46 0 0 1-.396-.48 1.515 1.515 0 0 1-.147-.689c0-.918.63-1.46 1.889-1.628l.867-.114Zm3.409 3.151v-7.514h.626v7.514h-.626Zm4.119.021a3.521 3.521 0 0 0-.303.073 1.553 1.553 0 0 1-.417.052c-.313 0-.553-.076-.72-.23-.16-.16-.241-.441-.241-.845v-3.955h-.761v-.522h.761v-1.503h.627v1.503h1.012v.522h-1.012v3.705c0 .132.003.247.01.344a.575.575 0 0 0 .063.24.302.302 0 0 0 .156.136.944.944 0 0 0 .313.042c.084 0 .167-.007.251-.021.09-.014.177-.031.261-.052v.511Zm1.005-.02v-7.515h.626v2.86c.251-.265.508-.48.772-.647.272-.167.595-.25.971-.25.334 0 .644.058.929.177.285.11.525.31.72.594.132.195.209.397.23.606a4.8 4.8 0 0 1 .041.636v3.538h-.626v-3.527c0-.487-.108-.852-.323-1.096-.216-.244-.574-.365-1.075-.365-.195 0-.373.031-.533.094-.16.055-.306.132-.438.23a1.623 1.623 0 0 0-.532.73c-.063.174-.101.34-.115.5-.014.16-.021.335-.021.522v2.912h-.626Zm9.629-3.706c-.111-.403-.302-.716-.574-.939-.271-.23-.616-.344-1.033-.344-.32 0-.595.066-.824.198-.23.132-.418.31-.564.532a2.318 2.318 0 0 0-.324.741 3.334 3.334 0 0 0-.104.825c0 .285.031.563.094.835.07.27.177.514.324.73.146.216.333.39.563.522.23.125.508.188.835.188.466 0 .838-.129 1.117-.386.285-.258.466-.613.542-1.065h.668c-.055.3-.146.574-.271.825a2.008 2.008 0 0 1-1.148 1.044 2.615 2.615 0 0 1-.908.145c-.431 0-.804-.073-1.117-.219a2.132 2.132 0 0 1-.772-.595 2.589 2.589 0 0 1-.449-.908 4.142 4.142 0 0 1-.146-1.116c0-.376.052-.734.157-1.075.111-.348.271-.654.48-.919a2.25 2.25 0 0 1 .772-.626c.313-.16.671-.24 1.075-.24.626 0 1.131.15 1.513.449.39.3.633.765.731 1.398h-.637Zm5.507.867a3.063 3.063 0 0 1-.804.219c-.271.035-.542.062-.814.083-.48.035-.855.143-1.127.324-.264.18-.396.456-.396.824 0 .167.031.313.094.438.069.119.156.22.261.303.111.077.236.136.375.178.146.034.292.052.439.052.25 0 .494-.032.73-.094.237-.063.445-.157.626-.282.188-.132.338-.296.449-.49a1.45 1.45 0 0 0 .167-.71v-.845Zm-1.054-.313c.118-.014.257-.035.417-.063.167-.028.303-.066.407-.115a.316.316 0 0 0 .188-.24c.028-.118.042-.226.042-.323 0-.32-.104-.581-.313-.783-.202-.209-.546-.313-1.033-.313-.216 0-.414.02-.595.062a1.23 1.23 0 0 0-.48.199c-.132.09-.244.215-.334.375a1.609 1.609 0 0 0-.167.585h-.637a1.9 1.9 0 0 1 .219-.814c.126-.23.286-.414.48-.553.202-.147.432-.25.689-.313a3.272 3.272 0 0 1 1.597-.01c.244.055.452.149.626.28.181.126.32.297.418.512.104.216.156.48.156.793v2.943c0 .244.042.4.125.47.091.063.268.045.533-.052v.49l-.219.063a.924.924 0 0 1-.272.042c-.097 0-.191-.01-.282-.032a.512.512 0 0 1-.25-.093.803.803 0 0 1-.157-.188.995.995 0 0 1-.073-.24 1.84 1.84 0 0 1-.021-.282 2.72 2.72 0 0 1-.907.668c-.341.153-.71.23-1.107.23-.236 0-.466-.032-.689-.095a1.666 1.666 0 0 1-.574-.292 1.46 1.46 0 0 1-.396-.48 1.515 1.515 0 0 1-.146-.689c0-.918.629-1.46 1.889-1.628l.866-.114Zm3.973 3.151h-.626v-5.406h.626v1.013h.021c.173-.432.396-.731.667-.898.279-.174.644-.26 1.096-.26v.678c-.355-.008-.647.048-.876.166a1.48 1.48 0 0 0-.553.48 1.999 1.999 0 0 0-.282.72 4.812 4.812 0 0 0-.073.856v2.651Zm6.548-3.078c0-.265-.039-.512-.115-.741a1.578 1.578 0 0 0-.324-.606 1.41 1.41 0 0 0-.532-.407 1.684 1.684 0 0 0-.741-.156c-.278 0-.525.052-.741.156a1.764 1.764 0 0 0-.542.418 2.136 2.136 0 0 0-.355.605c-.091.23-.15.473-.178.73h3.528Zm-3.528.521c0 .293.039.57.115.835.077.258.188.484.334.679.153.188.344.34.574.459.23.111.494.167.793.167.411 0 .762-.108 1.054-.324.292-.215.487-.522.585-.918h.699a3.536 3.536 0 0 1-.303.72 2.338 2.338 0 0 1-.469.574 2.09 2.09 0 0 1-.668.376c-.258.09-.557.135-.898.135-.431 0-.803-.073-1.117-.219a2.132 2.132 0 0 1-.772-.595 2.598 2.598 0 0 1-.449-.897 4.142 4.142 0 0 1-.146-1.117c0-.396.056-.769.167-1.117.119-.348.282-.65.491-.907.216-.265.476-.47.783-.616.306-.153.654-.23 1.043-.23.745 0 1.329.258 1.753.772.425.508.634 1.25.627 2.223h-4.196Z" fill="#000"/><path stroke="#016AC9" stroke-width=".53" d="M0 36.128h170"/><path fill-rule="evenodd" clip-rule="evenodd" d="M31.78 22.672c-.069 0-2.23.07-2.718 0a12.053 12.053 0 0 1-2.37-.414 18.769 18.769 0 0 1-2.858-1.313 12.838 12.838 0 0 0-4.809-.622h-6.132a10.974 10.974 0 0 0-4.809.622c-.914.517-1.87.956-2.858 1.313-.774.216-1.568.355-2.37.414H.14v-2.349c.07 0 2.23 0 2.718-.068a12.2 12.2 0 0 0 2.37-.346c.991-.377 1.948-.84 2.858-1.382a12.838 12.838 0 0 1 4.81-.622h6.133c1.63-.154 3.274.059 4.81.622.91.542 1.867 1.005 2.859 1.382a12.2 12.2 0 0 0 2.37.346c.488 0 2.579.069 2.719.069l-.005 2.348Z" fill="#69C"/><path fill-rule="evenodd" clip-rule="evenodd" d="M15.89 22.397h6.134a8.105 8.105 0 0 1 4.043 1.175 9.908 9.908 0 0 0 5.715 1.106v2.35c-2.23.068-4.53-.138-6.203-1.452a10.208 10.208 0 0 0-4.112-.898h-11.01a8.973 8.973 0 0 0-4.11.898c-1.739 1.381-4.043 1.59-6.278 1.52v-2.35c1.97.144 3.944-.237 5.716-1.104a8.106 8.106 0 0 1 4.038-1.176l6.067-.069ZM19.445 13.413c1.428 0 2.837.331 4.113.967 2.23 1.59 5.366 1.313 8.294 1.382v2.35c-2.928 0-6.134.276-8.364-1.452a9.569 9.569 0 0 0-4.25-.898h-6.483a9.57 9.57 0 0 0-4.25.898C6.277 18.392 3.066 18.112.14 18.112v-2.35c2.927-.068 5.994.208 8.294-1.381a9.989 9.989 0 0 1 4.112-.968h6.9Zm-3.554-4.49c2.37 0 4.81-.07 6.69 1.036a8.573 8.573 0 0 0 4.949 1.313h4.25v2.35c-1.674 0-3.207.069-4.81 0a8.606 8.606 0 0 1-4.392-1.313 9.978 9.978 0 0 0-4.6-.967h-4.181a10.374 10.374 0 0 0-4.6.967 7.995 7.995 0 0 1-4.388 1.312c-1.603.069-3.136 0-4.809 0v-2.35h4.25a8.72 8.72 0 0 0 4.948-1.313c1.952-1.106 4.391-1.037 6.69-1.037m0-4.491h1.256a9.067 9.067 0 0 1 4.323 1.036 8.8 8.8 0 0 0 5.022 1.313h5.297v2.35h-6A8.927 8.927 0 0 1 22.23 8.3a7.028 7.028 0 0 0-3.067-1.245 16.67 16.67 0 0 0-3.206-.208 16.314 16.314 0 0 0-3.206.208c-1.1.197-2.144.62-3.066 1.245a12.13 12.13 0 0 1-3.555.83H.139V6.85h5.297a8.944 8.944 0 0 0 5.022-1.313A9.066 9.066 0 0 1 14.776 4.5c.369-.058.742-.08 1.116-.07m.14-4.422a8.132 8.132 0 0 1 4.81 1.313 9.03 9.03 0 0 0 4.738 1.037h6.203v2.349h-7.11a8.378 8.378 0 0 1-3.695-.965 8.692 8.692 0 0 0-5.087-1.381 8.692 8.692 0 0 0-5.088 1.381c-1.151.57-2.409.9-3.694.967H.069V2.358h6.208A9.03 9.03 0 0 0 11.01 1.32 9.455 9.455 0 0 1 15.82.008h.21Z" fill="#69C"/><path d="M57.5 8.162c.002-.392.025-.785.069-1.175V4.154s-1.738-2.073-5.646-2.004a7.376 7.376 0 0 0-3.341.704 7.31 7.31 0 0 0-2.656 2.13 6.494 6.494 0 0 0-1.046 4.698c.349 2.418 1.882 3.869 4.182 5.32 2.37 1.52 4.042 1.935 5.575 3.525 1.603 1.52 1.255 4.354.14 5.666a5.036 5.036 0 0 1-2.79 1.659 5.654 5.654 0 0 1-4.593-1.104 11.21 11.21 0 0 1-3.066-4.699l-.14 4.628a10.22 10.22 0 0 0 6.69 2.695 7.718 7.718 0 0 0 4.826-1.58 7.604 7.604 0 0 0 2.77-4.224 6.503 6.503 0 0 0-.974-5.044 10.242 10.242 0 0 0-2.16-2.004c-2.022-1.59-6.901-3.525-7.598-5.666a4.03 4.03 0 0 1 .545-3.697 4.09 4.09 0 0 1 1.47-1.252 4.127 4.127 0 0 1 1.888-.442 6.214 6.214 0 0 1 2.914.813 6.15 6.15 0 0 1 2.174 2.088c.333.563.59 1.167.767 1.796M168.875 8.162c.002-.392.025-.785.069-1.175V4.154s-1.738-2.073-5.646-2.004a7.374 7.374 0 0 0-3.341.704 7.308 7.308 0 0 0-2.656 2.13 6.497 6.497 0 0 0-1.046 4.698c.349 2.418 1.882 3.869 4.182 5.32 2.37 1.52 4.042 1.935 5.575 3.525a4.377 4.377 0 0 1 1.114 2.808 4.374 4.374 0 0 1-.975 2.858 5.033 5.033 0 0 1-2.788 1.659 5.653 5.653 0 0 1-4.594-1.104 11.204 11.204 0 0 1-3.066-4.699l-.14 4.63a10.224 10.224 0 0 0 6.691 2.695 7.656 7.656 0 0 0 4.836-1.567 7.544 7.544 0 0 0 2.761-4.237 6.515 6.515 0 0 0-.976-5.044 10.216 10.216 0 0 0-2.16-2.004c-2.021-1.59-6.9-3.525-7.597-5.667a3.932 3.932 0 0 1 .459-3.714c.38-.533.886-.965 1.475-1.258a4.022 4.022 0 0 1 1.9-.417 6.216 6.216 0 0 1 2.912.812 6.152 6.152 0 0 1 2.174 2.086 6.27 6.27 0 0 1 .837 1.796M65.096 5.329s-.07-.623-.07-1.106c0-.484.07-1.659.07-1.796h17.006s.07 1.52.07 1.935c-.003.304-.05.606-.14.898a2.767 2.767 0 0 0-1.324-1.175c-.348-.07-1.951-.138-3.275-.208-.837 0-1.534-.069-1.673-.069-.28 0-.557.07-.557.346l-.07 20.937c0 .208.21 1.658 1.046 2.004H70.81a2.09 2.09 0 0 0 .802-.82c.184-.341.27-.728.244-1.115V4.223c0-.138-.07-.277-.349-.277a42.088 42.088 0 0 0-5.087.138 3.274 3.274 0 0 0-1.325 1.245ZM103.847 5.19c.075-.78.075-1.567 0-2.349-.07-.346-.279-.414-.418-.414h-13.87c.412.332.765.729 1.047 1.174.185.315.282.673.279 1.037 0 .138.07 7.67.07 9.052 0 1.382 0 10.642-.14 11.955-.07.69-1.185 1.52-1.185 1.52h15.053a9.095 9.095 0 0 0 .698-3.734 4.113 4.113 0 0 1-1.225 1.368c-.507.36-1.089.6-1.703.705-2.621.26-5.265.213-7.875-.138 0 0-.419 0-.419-.346 0-2.35 0-7.393-.069-9.881 0-.346 0-.691.349-.691 2.09-.11 4.186-.11 6.277 0 .418 0 .767.414 1.115.829.12-1.08.12-2.168 0-3.248 0 0-.487.691-.975.76-1.603.138-6.277.07-6.412.07-.134 0-.279-.139-.348-.415V4.497c0-.138.07-.484.418-.484.279 0 5.297-.069 7.457.138a3.307 3.307 0 0 1 1.882 1.037M113.396 27.164s.976-.623.976-1.313-.07-21.766-.07-22.042c0-.208 0-.83-1.185-1.382h8.155c.418 0 7.458.208 7.527 6.081a6.525 6.525 0 0 1-1.441 3.892 6.62 6.62 0 0 1-3.507 2.258s-.139.069-.139.138a.695.695 0 0 0 .069.208 11.03 11.03 0 0 1 1.812 1.866c.975 1.245 5.715 8.5 5.924 8.706a4.385 4.385 0 0 0 2.091 1.452c-1.16.1-2.325.1-3.485 0a3.04 3.04 0 0 1-1.375-.47 3.013 3.013 0 0 1-.995-1.05c-.767-1.038-4.879-7.74-5.924-9.053a2.24 2.24 0 0 0-1.811-.83h-2.161a.5.5 0 0 0-.369.168.485.485 0 0 0-.119.386c0 .276.07 9.258.07 9.604a1.95 1.95 0 0 0 1.045 1.313h-5.088v.068Zm4.043-13.405c0 .138.069.553.279.622 1.233.08 2.471.034 3.694-.138a5.65 5.65 0 0 0 3.254-2.146 5.562 5.562 0 0 0 1.067-3.727c-.07-1.59-.697-4.146-4.391-4.63a14.98 14.98 0 0 0-3.485-.068c-.418 0-.488.277-.488.622.07.208.07 9.467.07 9.467M145.108 27.164a2.537 2.537 0 0 1-.976-1.175c0-.207-.069-21.144 0-22.112a1.97 1.97 0 0 1 .837-1.45h-4.739a1.768 1.768 0 0 1 .836 1.381c.07.967 0 21.83 0 22.112a2.138 2.138 0 0 1-.906 1.245l4.948-.001Z" fill="#000"/></svg>